<svg xmlns="http://www.w3.org/2000/svg" viewBox="0 0 600 600" fill="currentColor">
  <g transform="translate(0,600) scale(0.1,-0.1)">
    <path d="M1695 4878 c3 -46 7 -128 10 -183 8 -170 28 -208 142 -268 125 -65 196 -84 588 -152 351 -62 539 -133 679 -257 l50 -43 -24 42 c-59 106 -184 209 -344 284 -47 21 -171 69 -278 105 -445 152 -653 285 -790 507 -16 26 -31 47 -33 47 -2 0 -2 -37 0 -82z"/>
    <path d="M1384 4355 c3 -143 11 -802 16 -1465 9 -998 14 -1217 26 -1277 29 -137 126 -248 289 -328 74 -37 244 -95 276 -95 4 0 -4 26 -18 58 -124 279 -25 560 244 695 49 24 118 52 154 61 l67 18 -68 65 c-63 59 -130 146 -130 169 0 5 29 17 65 26 107 28 174 67 251 143 79 78 99 112 172 297 28 70 68 158 90 195 22 37 38 70 36 72 -8 9 -114 -71 -146 -110 -50 -62 -108 -92 -178 -92 -187 0 -278 215 -146 347 23 23 58 54 79 69 21 16 76 80 122 143 179 241 284 311 558 369 72 16 77 19 71 39 -17 58 -47 110 -89 155 -120 128 -252 173 -710 241 -461 69 -637 122 -821 248 -56 38 -159 138 -197 192 -17 24 -18 16 -13 -235z"/>
    <path d="M3572 4331 c-61 -21 -90 -45 -137 -117 -92 -139 -78 -291 38 -420 26 -29 47 -57 47 -63 0 -13 -13 -19 -183 -77 -71 -24 -171 -53 -224 -63 -52 -11 -103 -26 -112 -34 -9 -8 -34 -20 -56 -27 -22 -7 -60 -28 -84 -48 -49 -40 -162 -174 -236 -280 -42 -60 -57 -74 -97 -89 -75 -27 -99 -51 -105 -106 -7 -57 11 -105 43 -117 22 -9 101 8 132 28 7 5 32 37 55 73 37 56 242 255 329 320 l27 20 21 -42 c21 -41 22 -41 65 -36 l44 6 -18 -52 c-28 -80 -55 -129 -157 -282 -121 -182 -153 -252 -161 -347 -3 -40 -12 -85 -19 -100 -41 -81 -225 -232 -314 -259 -22 -7 -40 -15 -40 -19 0 -20 228 -146 320 -178 68 -24 18 -84 -94 -112 -88 -22 -147 -53 -255 -134 -98 -74 -141 -93 -231 -106 -60 -8 -79 -15 -97 -36 -28 -31 -28 -41 -3 -146 11 -46 20 -111 20 -146 0 -34 6 -78 14 -97 17 -40 68 -75 110 -75 27 0 28 1 22 38 -20 112 -20 111 19 189 21 40 52 85 68 99 60 50 222 118 508 213 53 17 111 43 129 56 29 21 213 257 242 309 9 17 12 16 40 -10 16 -16 55 -62 85 -101 64 -84 74 -87 157 -46 52 25 56 26 80 10 53 -35 75 -80 100 -200 28 -133 45 -175 120 -296 59 -95 74 -135 100 -252 30 -139 65 -152 209 -81 56 27 125 58 152 68 68 23 127 85 123 128 -3 29 -5 31 -38 28 -19 -2 -73 -4 -120 -5 -71 -1 -92 2 -127 21 -67 35 -75 57 -173 452 -36 146 -60 219 -81 253 -34 57 -34 55 -13 79 16 17 13 21 -38 80 -142 164 -258 322 -258 353 0 32 65 175 117 258 l56 87 43 -40 c33 -30 52 -40 76 -40 49 1 154 49 269 125 57 37 135 83 173 101 95 46 116 68 116 117 0 31 -7 46 -34 73 -59 59 -140 38 -187 -47 -30 -54 -61 -72 -177 -103 l-92 -25 0 28 c0 16 -16 63 -36 106 -20 43 -44 120 -55 171 -10 51 -25 110 -34 130 -20 49 -19 61 10 89 21 22 33 25 97 25 93 0 120 14 133 65 5 22 12 42 15 45 3 3 12 25 20 50 7 25 20 52 27 61 17 21 17 26 -7 59 -18 25 -20 41 -17 129 3 76 8 106 21 119 17 19 21 59 8 79 -13 21 -215 113 -271 123 -80 15 -159 12 -219 -9z"/>
    <path d="M3177 1815 c-60 -76 -132 -138 -202 -173 -22 -11 -110 -41 -195 -66 -256 -77 -367 -141 -423 -244 -25 -47 -47 -147 -39 -184 4 -22 27 -24 327 -37 259 -11 401 -29 526 -65 l79 -23 -1 416 c0 229 -3 424 -7 433 -6 14 -19 2 -65 -57z"/>
  </g>
</svg>
