<?xml version="1.0" standalone="no"?>
<!DOCTYPE svg PUBLIC "-//W3C//DTD SVG 20010904//EN"
 "http://www.w3.org/TR/2001/REC-SVG-20010904/DTD/svg10.dtd">
<svg version="1.0" xmlns="http://www.w3.org/2000/svg"
 width="1013.000000pt" height="255.000000pt" viewBox="0 0 1013.000000 255.000000"
 preserveAspectRatio="xMidYMid meet">
<metadata>
Created by potrace 1.16, written by Peter Selinger 2001-2019
</metadata>
<g transform="translate(0.000000,255.000000) scale(0.100000,-0.100000)"
fill="#000000" stroke="none">
<path d="M443 2525 c-28 -20 -30 -65 -5 -87 9 -9 44 -21 77 -28 246 -48 461
-157 617 -311 98 -97 121 -142 30 -58 -187 173 -574 300 -922 303 -129 1 -161
-9 -202 -66 -31 -44 -30 -112 1 -373 20 -162 24 -249 25 -460 0 -251 -5 -334
-40 -626 -20 -161 -15 -197 32 -248 42 -48 94 -63 194 -59 l75 3 17 136 c63
508 70 935 22 1319 -21 171 -33 154 99 146 417 -25 698 -186 793 -455 36 -100
32 -143 -30 -331 -136 -414 -158 -701 -77 -1007 48 -181 83 -228 188 -259 108
-31 193 2 283 111 106 127 230 209 399 265 135 44 241 60 451 69 203 8 230 15
270 71 33 47 34 87 6 308 -34 269 -36 252 22 208 52 -40 133 -84 204 -111 45
-17 46 -18 63 -83 46 -186 195 -343 375 -397 30 -9 105 -19 165 -22 256 -13
464 68 654 254 52 51 95 93 96 93 1 0 12 -27 24 -59 44 -121 137 -219 248
-261 123 -47 296 -35 402 27 54 31 130 108 157 158 10 19 22 35 25 35 4 0 10
-20 13 -44 11 -70 63 -146 121 -176 66 -34 177 -35 247 -3 62 28 131 93 175
165 20 32 38 58 40 58 3 0 2 -146 -2 -324 l-8 -325 30 -30 c57 -57 165 -51
203 12 19 31 20 54 20 570 0 595 3 634 62 755 73 147 231 218 389 173 135 -38
240 -194 243 -359 l1 -55 -160 -59 c-270 -98 -363 -154 -423 -256 -22 -39 -27
-59 -27 -118 0 -61 4 -77 30 -120 45 -72 117 -107 235 -112 302 -15 528 165
591 471 10 51 19 104 19 118 0 20 13 37 56 70 31 23 90 80 132 125 l77 82 0
-292 c0 -248 3 -300 18 -356 41 -150 123 -215 272 -215 68 0 89 4 138 28 64
32 125 95 173 182 l31 56 38 -50 c74 -97 175 -164 296 -197 88 -24 280 -24
369 0 131 36 268 132 349 244 45 63 61 75 61 46 0 -9 13 -44 30 -79 77 -160
235 -245 434 -232 142 9 255 71 331 181 40 59 52 59 54 0 2 -41 34 -123 56
-144 36 -34 90 -42 149 -22 72 25 81 52 50 157 -38 125 -47 236 -40 467 9 271
3 283 -124 280 -36 -1 -63 -8 -80 -20 -24 -18 -25 -25 -37 -191 -13 -199 -37
-292 -95 -382 -82 -128 -232 -173 -362 -109 -37 17 -58 37 -86 81 -50 77 -64
140 -64 274 1 128 18 207 68 310 49 99 94 148 178 189 59 30 81 36 136 36 87
0 136 -16 182 -61 51 -49 70 -59 120 -59 80 0 130 36 130 95 0 58 -50 110
-151 154 -167 74 -407 68 -571 -15 -77 -39 -205 -172 -250 -259 -56 -111 -98
-261 -98 -354 0 -51 -70 -162 -154 -247 -151 -151 -350 -201 -530 -134 -138
52 -226 214 -226 415 1 266 147 458 349 458 48 0 78 -6 108 -22 50 -25 67 -49
84 -114 16 -64 41 -81 116 -75 48 4 61 10 85 37 23 26 28 40 28 84 -1 98 -58
178 -164 228 -87 42 -154 52 -286 46 -177 -8 -273 -48 -386 -161 -137 -137
-192 -303 -181 -547 l6 -136 -35 -74 c-48 -99 -79 -138 -130 -160 -49 -22 -80
-15 -112 26 -38 49 -45 142 -36 485 13 451 12 481 -8 513 -25 37 -86 52 -147
37 -61 -15 -88 -43 -107 -110 -28 -95 -84 -190 -163 -272 -40 -43 -77 -78 -82
-78 -4 0 -15 26 -24 58 -61 214 -199 357 -391 407 -113 29 -278 14 -374 -35
-48 -25 -134 -102 -161 -147 -13 -20 -24 -32 -25 -27 -2 5 -8 43 -15 84 -16
101 -43 130 -124 130 -67 0 -121 -21 -136 -53 -8 -18 -6 -42 10 -104 29 -111
44 -269 39 -388 -4 -84 -12 -121 -48 -229 -48 -144 -118 -264 -169 -290 -79
-41 -142 -3 -157 96 -4 29 -6 139 -4 243 7 315 8 312 -21 341 -22 21 -35 25
-84 25 -70 0 -109 -14 -124 -47 -6 -14 -11 -73 -11 -132 0 -335 -113 -536
-310 -550 -142 -10 -240 73 -281 238 -19 77 -16 240 6 320 62 225 182 347 351
358 91 6 135 -9 196 -66 42 -40 56 -46 101 -50 140 -11 195 94 95 183 -149
135 -459 155 -671 43 -38 -20 -93 -63 -139 -110 -119 -119 -184 -267 -203
-461 -8 -75 -26 -108 -114 -207 -156 -178 -424 -281 -623 -239 -107 23 -191
80 -238 163 -43 74 -41 86 18 86 147 0 328 41 457 104 106 52 160 96 209 171
96 144 79 330 -40 450 -50 49 -124 87 -202 104 -67 14 -211 14 -288 0 -228
-41 -420 -250 -461 -502 l-16 -96 -38 21 c-86 48 -168 148 -212 259 -57 143
-58 208 -10 554 30 218 27 253 -21 301 -49 49 -98 58 -241 45 -155 -15 -290
-43 -423 -87 -168 -57 -267 -112 -431 -239 l-26 -20 23 31 c42 60 169 169 257
221 105 63 259 124 370 148 138 30 150 35 153 77 2 28 -2 40 -20 52 -30 21
-47 20 -159 -9 -164 -42 -314 -112 -440 -206 -75 -55 -199 -182 -247 -251 -34
-49 -104 -189 -116 -230 -6 -20 -11 -14 -40 48 -90 192 -218 348 -372 454
-139 96 -358 186 -499 204 -38 5 -55 3 -72 -9z m1983 -467 c-33 -263 -40 -373
-40 -633 0 -206 4 -320 17 -430 10 -82 20 -160 23 -171 5 -20 0 -22 -68 -28
-184 -18 -397 -77 -527 -147 -79 -42 -188 -124 -220 -165 -11 -14 -22 -21 -25
-16 -9 15 -44 244 -61 392 -24 219 -29 366 -16 483 37 336 162 529 422 651
123 58 340 112 463 115 l39 1 -7 -52z m1316 -489 c70 -36 104 -106 95 -197
-15 -144 -178 -247 -430 -273 -142 -14 -147 -12 -147 59 0 115 50 250 121 327
95 103 251 139 361 84z m2963 -621 c-49 -166 -163 -271 -294 -271 -67 0 -98
14 -107 49 -15 58 84 133 261 198 142 53 149 54 140 24z"/>
<path d="M7295 2276 c-41 -18 -83 -69 -91 -111 -20 -108 49 -187 166 -189 97
-1 160 53 168 146 4 61 -19 106 -77 145 -39 27 -117 31 -166 9z"/>
</g>
</svg>
