<svg xmlns="http://www.w3.org/2000/svg" viewBox="0 0 100 100" fill="currentColor">
  <!--
    Meapica brand icon — the book-shaped "M" mark.
    Outer silhouette: two open book pages forming the letter M.
    Inner cutout shows the page interior (even-odd fill rule).
  -->
  <path fill-rule="evenodd" clip-rule="evenodd" d="
    M 12 82
    C 10 76 9 55 10 30
    C 10 20 12 12 16 8
    C 19 5 23 5 26 8
    C 29 11 30 17 30 26
    C 34 18 40 13 46 11
    C 48 10 52 10 54 11
    C 60 13 66 18 70 26
    C 70 17 71 11 74 8
    C 77 5 81 5 84 8
    C 88 12 90 20 90 30
    C 91 55 90 76 88 82
    C 83 90 70 94 60 88
    L 54 84
    C 52 83 50 83 48 83
    L 50 84
    C 46 88 36 90 12 82 Z

    M 32 74
    C 34 54 40 34 46 24
    C 48 20 50 18 50 20
    C 50 18 52 20 54 24
    C 60 34 66 54 68 74
    L 54 80
    C 52 81 50 81 48 80 Z
  " />
</svg>
